<svg width="355" height="363" viewBox="0 0 355 363" fill="none" xmlns="http://www.w3.org/2000/svg">
<g clip-path="url(#clip0_2001_18478)">
<path opacity="0.3" d="M190.5 250.497C104.896 250.497 0.5 252.915 0.5 285.5C0.5 296.585 39.5314 300.64 53.5 309.5C80.5921 326.684 88.018 362.5 144.5 362.5C182.708 362.5 183.655 351.577 219.5 345.5C241 351.5 312 342 326.5 334C351.23 334.529 370 336.246 370 326.5C370 293.915 276.104 250.497 190.5 250.497Z" fill="#AB3600"/>
<path d="M481.422 144.277C469.97 190.919 448.939 277.651 394.854 307.88C363.85 325.208 305.167 304.26 273.915 296.612C188.143 275.622 154.427 182.044 172.443 108.665C190.46 35.2861 202.897 -8.9303 305.277 4.97269C407.657 18.8757 499.439 70.8982 481.422 144.277Z" fill="#DC4600"/>
<path opacity="0.4" d="M303.662 50.5115C294.086 27.4646 259.667 9.03279 228.744 7.43063L228.737 7.46889C175.726 4.70265 162.673 28.3165 155.263 33.6791C152.012 36.0224 147.887 37.5787 144.246 38.5941C138.555 40.1695 131.723 45.3631 126.417 50.0495C120.432 55.3361 116.536 62.4762 114.27 70.1339C110.607 82.5127 110.858 95.7784 115.698 107.746C117.819 112.99 120.106 118.305 122.086 122.136C108.922 122.36 95.7217 120.937 81.4757 148.252C67.6175 173.586 110.637 196.188 110.637 196.188L160.999 284.498L288.991 295.273C302.5 265.5 290.185 246.396 290.185 246.396C332.593 231.039 306.194 164.585 306.194 164.585C346.613 152.85 337.324 113.746 322.567 89.6054C307.81 65.4651 303.662 50.5115 303.662 50.5115Z" fill="#AB3600"/>
<path d="M265.414 90.5859C267.497 95.3695 290.479 107.035 365.741 115.427" stroke="#FF793A" stroke-width="4" stroke-linecap="round"/>
<path d="M261.501 162.327C263.585 167.111 286.567 178.776 361.828 187.168" stroke="#FF793A" stroke-width="4" stroke-linecap="round"/>
<path d="M260.744 233.384C262.827 238.167 285.809 249.833 361.07 258.225" stroke="#FF793A" stroke-width="4" stroke-linecap="round"/>
<path d="M215.744 0.427578C246.668 2.02973 281.086 20.4616 290.662 43.5085C290.662 43.5085 294.81 58.4621 309.567 82.6023C324.324 106.743 333.613 145.847 293.195 157.582C293.195 157.582 319.593 224.036 277.185 239.393C277.185 239.393 289.5 258.497 275.991 288.27C275.991 288.27 310.738 288.267 329.596 276.325C329.596 276.325 353.32 266.035 344.072 282.936C334.823 299.836 318.041 324.395 291.361 313.553C264.681 302.711 267.398 308.823 267.398 308.823C267.398 308.823 243.947 339.054 199.321 327.186C193.102 325.532 186.438 326.401 180.941 329.747C166.363 338.62 145.921 346.027 122.282 334.565C86.2939 317.115 89.8202 296.95 93.122 284.368C93.122 284.368 58.3108 291.504 38.5005 284.368C19.5645 277.546 15.6294 256.696 13.9983 246C10.6608 224.114 45.5005 236.003 45.5005 236.003C45.5005 236.003 72.5749 193.893 97.6377 189.185C97.6377 189.185 54.6177 166.583 68.4759 141.249C82.722 113.934 95.9222 115.357 109.086 115.133C107.107 111.302 104.819 105.987 102.698 100.743C97.8583 88.7754 97.6076 75.5096 101.27 63.1308C103.536 55.4732 107.432 48.3331 113.417 43.0464C118.723 38.36 125.555 33.1665 131.246 31.5911C134.887 30.5757 139.013 29.0193 142.263 26.6761C149.673 21.3134 162.726 -2.3004 215.737 0.465837L215.744 0.427578Z" fill="#FF793A"/>
<path d="M177.484 50.2808C179.862 48.9331 184.85 47.7464 185.776 53.7816" stroke="#AB3600" stroke-width="2" stroke-linecap="round"/>
<path d="M285.039 160.695C214.5 168.497 258.5 120.997 243 108.497" stroke="#AB3600" stroke-width="6" stroke-linecap="round" stroke-linejoin="round"/>
<path d="M173.023 181.167C173.023 181.167 184.206 236.531 232.755 244.86C244.394 246.856 253.56 246.968 270.395 243.875" stroke="#AB3600" stroke-width="6" stroke-linecap="round" stroke-linejoin="round"/>
<path d="M180.354 144.846L210.959 121.355C212.393 120.249 214.439 120.523 215.543 121.958C216.648 123.393 216.373 125.44 214.939 126.546L189.127 146.353" fill="#F4F4F4"/>
<ellipse cx="186.881" cy="157.476" rx="16.8" ry="13.6273" transform="rotate(11.0721 186.881 157.476)" fill="#FF793A"/>
<path d="M142.42 60.1152C144.82 60.585 147.148 59.0178 147.618 56.6147C148.088 54.2117 146.523 51.8829 144.123 51.4131C141.722 50.9433 139.395 52.5105 138.924 54.9135C138.454 57.3166 140.019 59.6454 142.42 60.1152Z" fill="#AB3600"/>
<path d="M161.678 81.5583C165.14 82.1538 168.394 78.9374 168.946 74.3742C169.498 69.811 167.138 65.629 163.676 65.0334C160.214 64.4379 156.96 67.6543 156.408 72.2175C155.856 76.7807 158.216 80.9627 161.678 81.5583Z" stroke="#F4F4F4" stroke-width="2" stroke-miterlimit="10"/>
<path d="M138.524 72.9227C141.543 73.4421 144.44 70.1477 144.994 65.5647C145.548 60.9816 143.55 56.8454 140.531 56.326C137.512 55.8067 134.615 59.101 134.061 63.6841C133.507 68.2671 135.505 72.4034 138.524 72.9227Z" stroke="#F4F4F4" stroke-width="2" stroke-miterlimit="10"/>
<path d="M157.219 69.1881C157.219 69.1881 153.4 57.2521 145.059 63.4217" stroke="#F4F4F4" stroke-width="2" stroke-miterlimit="10"/>
<path d="M156.457 87.3113C158.456 82.6544 153.87 78.3402 146.688 75.2542C139.507 72.1681 132.448 71.4787 130.449 76.1357C128.451 80.7926 132.268 89.0323 139.45 92.1184C146.631 95.2045 154.458 91.9683 156.457 87.3113Z" fill="#AB3600"/>
<path d="M174.329 73.8692C176.582 74.8207 179.181 73.7634 180.133 71.5076C181.086 69.2519 180.031 66.6519 177.778 65.7004C175.524 64.7489 172.925 65.8062 171.973 68.062C171.02 70.3177 172.075 72.9177 174.329 73.8692Z" fill="#AB3600"/>
<path d="M200.685 171.392C195.173 184.328 182.763 184.884 174.185 178.729" stroke="#AB3600" stroke-width="6" stroke-miterlimit="10" stroke-linecap="round"/>
<path d="M107.462 128.012L105.852 82.5545C105.71 78.5566 109.936 75.8569 113.735 77.487L178.655 105.326C180.903 106.29 182.275 108.513 182.05 110.847L174.325 195.206C173.961 199.105 169.555 201.327 165.966 199.375L130.013 179.844C130.013 179.844 153.904 150.743 107.418 128.023L107.462 128.012Z" fill="#F4F4F4"/>
<path opacity="0.3" d="M141.5 170.998C142.321 169.656 143.415 166.748 144.366 163.126C149.784 142.496 130.207 128.126 110.811 119.253C109.098 118.469 107.759 117.997 106.999 117.996L107.5 127.997C120.5 134.495 141.4 148.397 135 169.997C134.167 174.117 127.7 184.442 122.5 187.498C129 187.498 136 179.998 141.5 170.998Z" fill="#AB3600"/>
<path d="M151.892 44.1275C150.498 45.7267 147.123 47.6625 144.771 42.6117" stroke="#AB3600" stroke-width="2" stroke-linecap="round"/>
<path d="M167.684 234.32C167.684 234.32 130.544 223.732 116.96 268.583C104.804 269.019 99.0085 269.986 94.9754 277.938" stroke="#AB3600" stroke-width="6" stroke-linecap="round" stroke-linejoin="round"/>
<path d="M101.152 192.504C105.162 195.326 117.206 196.149 124.694 189.1C127.115 187.183 129.991 184.206 132.42 180.445" stroke="#AB3600" stroke-width="6" stroke-linecap="round" stroke-linejoin="round"/>
<ellipse opacity="0.3" cx="265.5" cy="344.5" rx="24.5" ry="9.5" fill="#AB3600"/>
<ellipse cx="261.5" cy="304.5" rx="20.5" ry="6.5" fill="white"/>
<path d="M241 305H282V334C282 342.284 275.284 349 267 349H256C247.716 349 241 342.284 241 334V305Z" fill="white"/>
<ellipse cx="261.5" cy="306.5" rx="17.5" ry="4.5" fill="#724500"/>
<rect x="275" y="311" width="14" height="19" rx="4" fill="white"/>
</g>
<defs>
<clipPath id="clip0_2001_18478">
<rect width="355" height="363" fill="white"/>
</clipPath>
</defs>
</svg>
