<svg width="150" height="123" viewBox="0 0 150 123" fill="none" xmlns="http://www.w3.org/2000/svg">
<path d="M8.51074 89.0439V92.6875C8.3877 92.8698 8.19173 93.0749 7.92285 93.3027C7.65397 93.526 7.28255 93.722 6.80859 93.8906C6.33919 94.0547 5.73307 94.1367 4.99023 94.1367C4.38411 94.1367 3.82585 94.0319 3.31543 93.8223C2.80957 93.6081 2.36979 93.2982 1.99609 92.8926C1.62695 92.4824 1.33984 91.9857 1.13477 91.4023C0.934245 90.8145 0.833984 90.1491 0.833984 89.4062V88.6338C0.833984 87.891 0.920573 87.2279 1.09375 86.6445C1.27148 86.0612 1.53125 85.5667 1.87305 85.1611C2.21484 84.751 2.63411 84.4411 3.13086 84.2314C3.6276 84.0173 4.19727 83.9102 4.83984 83.9102C5.60091 83.9102 6.23665 84.0423 6.74707 84.3066C7.26204 84.5664 7.66309 84.9264 7.9502 85.3867C8.24186 85.847 8.42871 86.3711 8.51074 86.959H7.19141C7.13216 86.599 7.01367 86.2708 6.83594 85.9746C6.66276 85.6784 6.41439 85.4414 6.09082 85.2637C5.76725 85.0814 5.35026 84.9902 4.83984 84.9902C4.37956 84.9902 3.98079 85.0745 3.64355 85.2432C3.30632 85.4118 3.02832 85.6533 2.80957 85.9678C2.59082 86.2822 2.42676 86.6628 2.31738 87.1094C2.21257 87.556 2.16016 88.0596 2.16016 88.6201V89.4062C2.16016 89.9805 2.22624 90.4932 2.3584 90.9443C2.49512 91.3955 2.6888 91.7806 2.93945 92.0996C3.1901 92.4141 3.48861 92.6533 3.83496 92.8174C4.18587 92.9814 4.57324 93.0635 4.99707 93.0635C5.46647 93.0635 5.84701 93.0247 6.13867 92.9473C6.43034 92.8652 6.6582 92.7695 6.82227 92.6602C6.98633 92.5462 7.11165 92.4391 7.19824 92.3389V90.1104H4.89453V89.0439H8.51074ZM11.7715 87.7656V94H10.5068V86.6035H11.7373L11.7715 87.7656ZM14.082 86.5625L14.0752 87.7383C13.9704 87.7155 13.8701 87.7018 13.7744 87.6973C13.6833 87.6882 13.5785 87.6836 13.46 87.6836C13.1683 87.6836 12.9108 87.7292 12.6875 87.8203C12.4642 87.9115 12.2751 88.0391 12.1201 88.2031C11.9652 88.3672 11.8421 88.5632 11.751 88.791C11.6644 89.0143 11.6074 89.2604 11.5801 89.5293L11.2246 89.7344C11.2246 89.2878 11.2679 88.8685 11.3545 88.4766C11.4456 88.0846 11.5846 87.7383 11.7715 87.4375C11.9583 87.1322 12.1953 86.8952 12.4824 86.7266C12.7741 86.5534 13.1204 86.4668 13.5215 86.4668C13.6126 86.4668 13.7174 86.4782 13.8359 86.501C13.9544 86.5192 14.0365 86.5397 14.082 86.5625ZM19.3389 92.7354V88.9277C19.3389 88.6361 19.2796 88.3831 19.1611 88.1689C19.0472 87.9502 18.874 87.7816 18.6416 87.6631C18.4092 87.5446 18.1221 87.4854 17.7803 87.4854C17.4613 87.4854 17.181 87.54 16.9395 87.6494C16.7025 87.7588 16.5156 87.9023 16.3789 88.0801C16.2467 88.2578 16.1807 88.4492 16.1807 88.6543H14.916C14.916 88.39 14.9844 88.1279 15.1211 87.8682C15.2578 87.6084 15.4538 87.3737 15.709 87.1641C15.9688 86.9499 16.2786 86.7812 16.6387 86.6582C17.0033 86.5306 17.4089 86.4668 17.8555 86.4668C18.3932 86.4668 18.8672 86.5579 19.2773 86.7402C19.6921 86.9225 20.0156 87.1982 20.248 87.5674C20.485 87.932 20.6035 88.39 20.6035 88.9414V92.3867C20.6035 92.6328 20.624 92.8949 20.665 93.1729C20.7106 93.4508 20.7767 93.6901 20.8633 93.8906V94H19.5439C19.4801 93.8542 19.43 93.6605 19.3936 93.4189C19.3571 93.1729 19.3389 92.945 19.3389 92.7354ZM19.5576 89.5156L19.5713 90.4043H18.293C17.9329 90.4043 17.6117 90.4339 17.3291 90.4932C17.0465 90.5479 16.8096 90.6322 16.6182 90.7461C16.4268 90.86 16.2809 91.0036 16.1807 91.1768C16.0804 91.3454 16.0303 91.5436 16.0303 91.7715C16.0303 92.0039 16.0827 92.2158 16.1875 92.4072C16.2923 92.5986 16.4495 92.7513 16.6592 92.8652C16.8734 92.9746 17.1354 93.0293 17.4453 93.0293C17.8327 93.0293 18.1745 92.9473 18.4707 92.7832C18.7669 92.6191 19.0016 92.4186 19.1748 92.1816C19.3525 91.9447 19.4482 91.7145 19.4619 91.4912L20.002 92.0996C19.9701 92.291 19.8835 92.5029 19.7422 92.7354C19.6009 92.9678 19.4118 93.1911 19.1748 93.4053C18.9424 93.6149 18.6644 93.7904 18.3408 93.9316C18.0218 94.0684 17.6618 94.1367 17.2607 94.1367C16.7594 94.1367 16.3197 94.0387 15.9414 93.8428C15.5677 93.6468 15.276 93.3848 15.0664 93.0566C14.8613 92.724 14.7588 92.3525 14.7588 91.9424C14.7588 91.5459 14.8363 91.1973 14.9912 90.8965C15.1462 90.5911 15.3695 90.3382 15.6611 90.1377C15.9528 89.9326 16.3037 89.7777 16.7139 89.6729C17.124 89.568 17.582 89.5156 18.0879 89.5156H19.5576ZM24.5615 93.2344L26.6191 86.6035H27.9727L25.0059 95.1416C24.9375 95.3239 24.8464 95.5199 24.7324 95.7295C24.623 95.9437 24.4818 96.1465 24.3086 96.3379C24.1354 96.5293 23.9258 96.6842 23.6797 96.8027C23.4382 96.9258 23.1488 96.9873 22.8115 96.9873C22.7113 96.9873 22.5837 96.9736 22.4287 96.9463C22.2738 96.9189 22.1644 96.8962 22.1006 96.8779L22.0938 95.8525C22.1302 95.8571 22.1872 95.8617 22.2646 95.8662C22.3467 95.8753 22.4036 95.8799 22.4355 95.8799C22.7227 95.8799 22.9665 95.8411 23.167 95.7637C23.3675 95.6908 23.5361 95.5654 23.6729 95.3877C23.8141 95.2145 23.9349 94.9753 24.0352 94.6699L24.5615 93.2344ZM23.0508 86.6035L24.9717 92.3457L25.2998 93.6787L24.3906 94.1436L21.6699 86.6035H23.0508ZM33.708 92.9404H33.8379C34.5671 92.9404 35.1595 92.8379 35.6152 92.6328C36.071 92.4277 36.4219 92.152 36.668 91.8057C36.9141 91.4593 37.0827 91.0697 37.1738 90.6367C37.265 90.1992 37.3105 89.7503 37.3105 89.29V87.7656C37.3105 87.3145 37.2581 86.9134 37.1533 86.5625C37.0531 86.2116 36.9118 85.9176 36.7295 85.6807C36.5518 85.4437 36.349 85.2637 36.1211 85.1406C35.8932 85.0176 35.6517 84.9561 35.3965 84.9561C35.1048 84.9561 34.8428 85.0153 34.6104 85.1338C34.3825 85.2477 34.1888 85.4095 34.0293 85.6191C33.8743 85.8288 33.7559 86.0749 33.6738 86.3574C33.5918 86.64 33.5508 86.9476 33.5508 87.2803C33.5508 87.5765 33.5872 87.8636 33.6602 88.1416C33.7331 88.4196 33.8447 88.6702 33.9951 88.8936C34.1455 89.1169 34.3324 89.2946 34.5557 89.4268C34.7835 89.5544 35.0501 89.6182 35.3555 89.6182C35.638 89.6182 35.9023 89.5635 36.1484 89.4541C36.3991 89.3402 36.6201 89.1875 36.8115 88.9961C37.0075 88.8001 37.1624 88.5791 37.2764 88.333C37.3949 88.0869 37.4632 87.8294 37.4814 87.5605H38.083C38.083 87.9388 38.0078 88.3125 37.8574 88.6816C37.7116 89.0462 37.5065 89.3789 37.2422 89.6797C36.9779 89.9805 36.668 90.222 36.3125 90.4043C35.957 90.582 35.5697 90.6709 35.1504 90.6709C34.6582 90.6709 34.2321 90.5752 33.8721 90.3838C33.512 90.1924 33.2158 89.9372 32.9834 89.6182C32.7555 89.2992 32.5846 88.9437 32.4707 88.5518C32.3613 88.1553 32.3066 87.7542 32.3066 87.3486C32.3066 86.8747 32.3727 86.4303 32.5049 86.0156C32.637 85.6009 32.833 85.2363 33.0928 84.9219C33.3525 84.6029 33.6738 84.3545 34.0566 84.1768C34.444 83.999 34.8906 83.9102 35.3965 83.9102C35.9661 83.9102 36.4515 84.0241 36.8525 84.252C37.2536 84.4798 37.5794 84.7852 37.8301 85.168C38.0853 85.5508 38.2721 85.9814 38.3906 86.46C38.5091 86.9385 38.5684 87.4307 38.5684 87.9365V88.3945C38.5684 88.9095 38.5342 89.4336 38.4658 89.9668C38.402 90.4954 38.2767 91.0013 38.0898 91.4844C37.9076 91.9674 37.641 92.4004 37.29 92.7832C36.9391 93.1615 36.4811 93.4622 35.916 93.6855C35.3555 93.9043 34.6628 94.0137 33.8379 94.0137H33.708V92.9404ZM46.5732 88.2305V89.748C46.5732 90.5638 46.5003 91.252 46.3545 91.8125C46.2087 92.373 45.999 92.8242 45.7256 93.166C45.4521 93.5078 45.1217 93.7562 44.7344 93.9111C44.3516 94.0615 43.9186 94.1367 43.4355 94.1367C43.0527 94.1367 42.6995 94.0889 42.376 93.9932C42.0524 93.8975 41.7607 93.7448 41.501 93.5352C41.2458 93.321 41.027 93.043 40.8447 92.7012C40.6624 92.3594 40.5234 91.9447 40.4277 91.457C40.332 90.9694 40.2842 90.3997 40.2842 89.748V88.2305C40.2842 87.4147 40.3571 86.7311 40.5029 86.1797C40.6533 85.6283 40.8652 85.1862 41.1387 84.8535C41.4121 84.5163 41.7402 84.2747 42.123 84.1289C42.5104 83.9831 42.9434 83.9102 43.4219 83.9102C43.8092 83.9102 44.1647 83.958 44.4883 84.0537C44.8164 84.1449 45.1081 84.293 45.3633 84.498C45.6185 84.6986 45.835 84.9674 46.0127 85.3047C46.195 85.6374 46.334 86.0452 46.4297 86.5283C46.5254 87.0114 46.5732 87.5788 46.5732 88.2305ZM45.3018 89.9531V88.0186C45.3018 87.5719 45.2744 87.18 45.2197 86.8428C45.1696 86.501 45.0944 86.2093 44.9941 85.9678C44.8939 85.7262 44.7663 85.5303 44.6113 85.3799C44.4609 85.2295 44.2855 85.1201 44.085 85.0518C43.889 84.9788 43.668 84.9424 43.4219 84.9424C43.1211 84.9424 42.8545 84.9993 42.6221 85.1133C42.3896 85.2227 42.1937 85.3981 42.0342 85.6396C41.8792 85.8812 41.7607 86.1979 41.6787 86.5898C41.5967 86.9818 41.5557 87.458 41.5557 88.0186V89.9531C41.5557 90.3997 41.5807 90.7939 41.6309 91.1357C41.6855 91.4775 41.7653 91.7738 41.8701 92.0244C41.9749 92.2705 42.1025 92.4733 42.2529 92.6328C42.4033 92.7923 42.5765 92.9108 42.7725 92.9883C42.973 93.0612 43.194 93.0977 43.4355 93.0977C43.7454 93.0977 44.0166 93.0384 44.249 92.9199C44.4814 92.8014 44.6751 92.6169 44.8301 92.3662C44.9896 92.111 45.1081 91.7852 45.1855 91.3887C45.263 90.9876 45.3018 90.5091 45.3018 89.9531ZM54.4482 88.2305V89.748C54.4482 90.5638 54.3753 91.252 54.2295 91.8125C54.0837 92.373 53.874 92.8242 53.6006 93.166C53.3271 93.5078 52.9967 93.7562 52.6094 93.9111C52.2266 94.0615 51.7936 94.1367 51.3105 94.1367C50.9277 94.1367 50.5745 94.0889 50.251 93.9932C49.9274 93.8975 49.6357 93.7448 49.376 93.5352C49.1208 93.321 48.902 93.043 48.7197 92.7012C48.5374 92.3594 48.3984 91.9447 48.3027 91.457C48.207 90.9694 48.1592 90.3997 48.1592 89.748V88.2305C48.1592 87.4147 48.2321 86.7311 48.3779 86.1797C48.5283 85.6283 48.7402 85.1862 49.0137 84.8535C49.2871 84.5163 49.6152 84.2747 49.998 84.1289C50.3854 83.9831 50.8184 83.9102 51.2969 83.9102C51.6842 83.9102 52.0397 83.958 52.3633 84.0537C52.6914 84.1449 52.9831 84.293 53.2383 84.498C53.4935 84.6986 53.71 84.9674 53.8877 85.3047C54.07 85.6374 54.209 86.0452 54.3047 86.5283C54.4004 87.0114 54.4482 87.5788 54.4482 88.2305ZM53.1768 89.9531V88.0186C53.1768 87.5719 53.1494 87.18 53.0947 86.8428C53.0446 86.501 52.9694 86.2093 52.8691 85.9678C52.7689 85.7262 52.6413 85.5303 52.4863 85.3799C52.3359 85.2295 52.1605 85.1201 51.96 85.0518C51.764 84.9788 51.543 84.9424 51.2969 84.9424C50.9961 84.9424 50.7295 84.9993 50.4971 85.1133C50.2646 85.2227 50.0687 85.3981 49.9092 85.6396C49.7542 85.8812 49.6357 86.1979 49.5537 86.5898C49.4717 86.9818 49.4307 87.458 49.4307 88.0186V89.9531C49.4307 90.3997 49.4557 90.7939 49.5059 91.1357C49.5605 91.4775 49.6403 91.7738 49.7451 92.0244C49.8499 92.2705 49.9775 92.4733 50.1279 92.6328C50.2783 92.7923 50.4515 92.9108 50.6475 92.9883C50.848 93.0612 51.069 93.0977 51.3105 93.0977C51.6204 93.0977 51.8916 93.0384 52.124 92.9199C52.3564 92.8014 52.5501 92.6169 52.7051 92.3662C52.8646 92.111 52.9831 91.7852 53.0605 91.3887C53.138 90.9876 53.1768 90.5091 53.1768 89.9531Z" fill="black"/>
<path d="M4.9834 107.992V118H3.71875V109.571L1.16895 110.501V109.359L4.78516 107.992H4.9834ZM11.7236 118H9.64551L9.65918 116.927H11.7236C12.4346 116.927 13.027 116.779 13.501 116.482C13.9749 116.182 14.3304 115.762 14.5674 115.225C14.8089 114.682 14.9297 114.049 14.9297 113.324V112.716C14.9297 112.146 14.8613 111.64 14.7246 111.198C14.5879 110.752 14.3874 110.376 14.123 110.07C13.8587 109.76 13.5352 109.526 13.1523 109.366C12.7741 109.207 12.3389 109.127 11.8467 109.127H9.60449V108.047H11.8467C12.4984 108.047 13.0931 108.156 13.6309 108.375C14.1686 108.589 14.6312 108.901 15.0186 109.312C15.4105 109.717 15.7113 110.209 15.9209 110.788C16.1305 111.362 16.2354 112.009 16.2354 112.729V113.324C16.2354 114.044 16.1305 114.694 15.9209 115.272C15.7113 115.847 15.4082 116.337 15.0117 116.742C14.6198 117.148 14.1458 117.46 13.5898 117.679C13.0384 117.893 12.4163 118 11.7236 118ZM10.3496 108.047V118H9.03027V108.047H10.3496ZM22.0459 107.992V118H20.7812V109.571L18.2314 110.501V109.359L21.8477 107.992H22.0459ZM28.7861 118H26.708L26.7217 116.927H28.7861C29.4971 116.927 30.0895 116.779 30.5635 116.482C31.0374 116.182 31.3929 115.762 31.6299 115.225C31.8714 114.682 31.9922 114.049 31.9922 113.324V112.716C31.9922 112.146 31.9238 111.64 31.7871 111.198C31.6504 110.752 31.4499 110.376 31.1855 110.07C30.9212 109.76 30.5977 109.526 30.2148 109.366C29.8366 109.207 29.4014 109.127 28.9092 109.127H26.667V108.047H28.9092C29.5609 108.047 30.1556 108.156 30.6934 108.375C31.2311 108.589 31.6937 108.901 32.0811 109.312C32.473 109.717 32.7738 110.209 32.9834 110.788C33.193 111.362 33.2979 112.009 33.2979 112.729V113.324C33.2979 114.044 33.193 114.694 32.9834 115.272C32.7738 115.847 32.4707 116.337 32.0742 116.742C31.6823 117.148 31.2083 117.46 30.6523 117.679C30.1009 117.893 29.4788 118 28.7861 118ZM27.4121 108.047V118H26.0928V108.047H27.4121ZM39.1084 107.992V118H37.8438V109.571L35.2939 110.501V109.359L38.9102 107.992H39.1084ZM45.8486 118H43.7705L43.7842 116.927H45.8486C46.5596 116.927 47.152 116.779 47.626 116.482C48.0999 116.182 48.4554 115.762 48.6924 115.225C48.9339 114.682 49.0547 114.049 49.0547 113.324V112.716C49.0547 112.146 48.9863 111.64 48.8496 111.198C48.7129 110.752 48.5124 110.376 48.248 110.07C47.9837 109.76 47.6602 109.526 47.2773 109.366C46.8991 109.207 46.4639 109.127 45.9717 109.127H43.7295V108.047H45.9717C46.6234 108.047 47.2181 108.156 47.7559 108.375C48.2936 108.589 48.7562 108.901 49.1436 109.312C49.5355 109.717 49.8363 110.209 50.0459 110.788C50.2555 111.362 50.3604 112.009 50.3604 112.729V113.324C50.3604 114.044 50.2555 114.694 50.0459 115.272C49.8363 115.847 49.5332 116.337 49.1367 116.742C48.7448 117.148 48.2708 117.46 47.7148 117.679C47.1634 117.893 46.5413 118 45.8486 118ZM44.4746 108.047V118H43.1553V108.047H44.4746Z" fill="black"/>
<rect x="150" y="75" width="150" height="75" transform="rotate(-180 150 75)" fill="#1D1D1D"/>
<path d="M15.3389 10.0469V20H13.2949V10.0469H15.3389ZM18.4014 10.0469V11.6533H10.2803V10.0469H18.4014ZM22.209 20.1367C21.6348 20.1367 21.1198 20.0456 20.6641 19.8633C20.2083 19.6764 19.821 19.4189 19.502 19.0908C19.1875 18.7627 18.946 18.3822 18.7773 17.9492C18.6087 17.5117 18.5244 17.0469 18.5244 16.5547V16.2812C18.5244 15.7207 18.6042 15.208 18.7637 14.7432C18.9232 14.2783 19.151 13.875 19.4473 13.5332C19.748 13.1914 20.1126 12.9294 20.541 12.7471C20.9694 12.5602 21.4525 12.4668 21.9902 12.4668C22.5143 12.4668 22.9792 12.5534 23.3848 12.7266C23.7904 12.8997 24.1299 13.1458 24.4033 13.4648C24.6813 13.7839 24.891 14.1667 25.0322 14.6133C25.1735 15.0553 25.2441 15.5475 25.2441 16.0898V16.9102H19.3652V15.5977H23.3096V15.4473C23.3096 15.1738 23.2594 14.93 23.1592 14.7158C23.0635 14.4971 22.9176 14.3239 22.7217 14.1963C22.5257 14.0687 22.2751 14.0049 21.9697 14.0049C21.71 14.0049 21.4867 14.0618 21.2998 14.1758C21.113 14.2897 20.9603 14.4492 20.8418 14.6543C20.7279 14.8594 20.6413 15.1009 20.582 15.3789C20.5273 15.6523 20.5 15.9531 20.5 16.2812V16.5547C20.5 16.8509 20.541 17.1243 20.623 17.375C20.7096 17.6257 20.8304 17.8421 20.9854 18.0244C21.1449 18.2067 21.3363 18.348 21.5596 18.4482C21.7874 18.5485 22.0449 18.5986 22.332 18.5986C22.6875 18.5986 23.0179 18.5303 23.3232 18.3936C23.6331 18.2523 23.8997 18.0404 24.123 17.7578L25.0801 18.7969C24.9251 19.0202 24.7132 19.2344 24.4443 19.4395C24.18 19.6445 23.861 19.8132 23.4873 19.9453C23.1136 20.0729 22.6875 20.1367 22.209 20.1367ZM27.9512 12.6035L29.1748 14.8525L30.4326 12.6035H32.5312L30.4395 16.2197L32.627 20H30.5215L29.1885 17.6211L27.8555 20H25.75L27.9375 16.2197L25.8457 12.6035H27.9512ZM37.1113 12.6035V13.998H32.8047V12.6035H37.1113ZM33.8711 10.7783H35.8398V17.7715C35.8398 17.9857 35.8672 18.1497 35.9219 18.2637C35.9811 18.3776 36.0677 18.4574 36.1816 18.5029C36.2956 18.5439 36.4391 18.5645 36.6123 18.5645C36.7354 18.5645 36.8447 18.5599 36.9404 18.5508C37.0407 18.5371 37.125 18.5234 37.1934 18.5098L37.2002 19.959C37.0316 20.0137 36.8493 20.057 36.6533 20.0889C36.4574 20.1208 36.2409 20.1367 36.0039 20.1367C35.571 20.1367 35.1927 20.0661 34.8691 19.9248C34.5501 19.779 34.304 19.5465 34.1309 19.2275C33.9577 18.9085 33.8711 18.4893 33.8711 17.9697V10.7783ZM43.6807 20V21.4971H37.4736V20H43.6807ZM45.7793 18.5029H45.9092C46.4561 18.5029 46.9255 18.4368 47.3174 18.3047C47.7139 18.168 48.0397 17.972 48.2949 17.7168C48.5501 17.4616 48.7393 17.1494 48.8623 16.7803C48.9854 16.4066 49.0469 15.9827 49.0469 15.5088V13.6221C49.0469 13.262 49.0104 12.9453 48.9375 12.6719C48.8691 12.3984 48.7689 12.1729 48.6367 11.9951C48.5091 11.8128 48.3587 11.6761 48.1855 11.585C48.0169 11.4938 47.8301 11.4482 47.625 11.4482C47.4062 11.4482 47.2126 11.5029 47.0439 11.6123C46.8753 11.7171 46.7318 11.8607 46.6133 12.043C46.4993 12.2253 46.4105 12.4349 46.3467 12.6719C46.2874 12.9043 46.2578 13.1481 46.2578 13.4033C46.2578 13.6585 46.2874 13.9023 46.3467 14.1348C46.4059 14.3626 46.4948 14.5654 46.6133 14.7432C46.7318 14.9163 46.8799 15.0553 47.0576 15.1602C47.2354 15.2604 47.445 15.3105 47.6865 15.3105C47.9189 15.3105 48.1263 15.2673 48.3086 15.1807C48.4954 15.0895 48.6527 14.971 48.7803 14.8252C48.9124 14.6794 49.0127 14.5176 49.0811 14.3398C49.154 14.1621 49.1904 13.9821 49.1904 13.7998L49.8398 14.1553C49.8398 14.4743 49.7715 14.7887 49.6348 15.0986C49.498 15.4085 49.3066 15.6911 49.0605 15.9463C48.819 16.1969 48.5387 16.3975 48.2197 16.5479C47.9007 16.6982 47.5589 16.7734 47.1943 16.7734C46.7295 16.7734 46.3171 16.6891 45.957 16.5205C45.597 16.3473 45.2917 16.1104 45.041 15.8096C44.7949 15.5042 44.6081 15.1488 44.4805 14.7432C44.3529 14.3376 44.2891 13.8978 44.2891 13.4238C44.2891 12.9408 44.3665 12.4873 44.5215 12.0635C44.681 11.6396 44.9066 11.266 45.1982 10.9424C45.4945 10.6188 45.8477 10.3659 46.2578 10.1836C46.6725 9.99674 47.1328 9.90332 47.6387 9.90332C48.1445 9.90332 48.6048 10.0013 49.0195 10.1973C49.4342 10.3932 49.7897 10.6712 50.0859 11.0312C50.3822 11.3867 50.61 11.8128 50.7695 12.3096C50.9336 12.8063 51.0156 13.3577 51.0156 13.9639V14.6475C51.0156 15.2946 50.945 15.8962 50.8037 16.4521C50.667 17.0081 50.4596 17.5117 50.1816 17.9629C49.9082 18.4095 49.5664 18.7923 49.1562 19.1113C48.7507 19.4303 48.279 19.6742 47.7412 19.8428C47.2035 20.0114 46.6019 20.0957 45.9365 20.0957H45.7793V18.5029ZM59.123 14.1484V15.8711C59.123 16.6185 59.0433 17.2633 58.8838 17.8057C58.7243 18.3434 58.4941 18.7855 58.1934 19.1318C57.8971 19.4736 57.5439 19.7266 57.1338 19.8906C56.7236 20.0547 56.2679 20.1367 55.7666 20.1367C55.3656 20.1367 54.9919 20.0866 54.6455 19.9863C54.2992 19.8815 53.987 19.7197 53.709 19.501C53.4355 19.2822 53.1986 19.0065 52.998 18.6738C52.8021 18.3366 52.6517 17.9355 52.5469 17.4707C52.4421 17.0059 52.3896 16.4727 52.3896 15.8711V14.1484C52.3896 13.401 52.4694 12.7607 52.6289 12.2275C52.793 11.6898 53.0231 11.25 53.3193 10.9082C53.6201 10.5664 53.9756 10.3158 54.3857 10.1562C54.7959 9.99219 55.2516 9.91016 55.7529 9.91016C56.154 9.91016 56.5254 9.96257 56.8672 10.0674C57.2135 10.1676 57.5257 10.3249 57.8037 10.5391C58.0817 10.7533 58.3187 11.029 58.5146 11.3662C58.7106 11.6989 58.861 12.0977 58.9658 12.5625C59.0706 13.0228 59.123 13.5514 59.123 14.1484ZM57.1475 16.1309V13.8818C57.1475 13.5218 57.127 13.2074 57.0859 12.9385C57.0495 12.6696 56.9925 12.4417 56.915 12.2549C56.8376 12.0635 56.7419 11.9085 56.6279 11.79C56.514 11.6715 56.3841 11.585 56.2383 11.5303C56.0924 11.4756 55.9307 11.4482 55.7529 11.4482C55.5296 11.4482 55.3314 11.4915 55.1582 11.5781C54.9896 11.6647 54.846 11.8037 54.7275 11.9951C54.609 12.182 54.5179 12.4326 54.4541 12.7471C54.3949 13.057 54.3652 13.4352 54.3652 13.8818V16.1309C54.3652 16.4909 54.3835 16.8076 54.4199 17.0811C54.4609 17.3545 54.5202 17.5892 54.5977 17.7852C54.6797 17.9766 54.7754 18.1338 54.8848 18.2568C54.9987 18.3753 55.1286 18.4619 55.2744 18.5166C55.4248 18.5713 55.5889 18.5986 55.7666 18.5986C55.9854 18.5986 56.179 18.5553 56.3477 18.4688C56.5208 18.3776 56.6667 18.2363 56.7852 18.0449C56.9082 17.849 56.9993 17.5938 57.0586 17.2793C57.1178 16.9648 57.1475 16.582 57.1475 16.1309ZM67.1621 14.1484V15.8711C67.1621 16.6185 67.0824 17.2633 66.9229 17.8057C66.7633 18.3434 66.5332 18.7855 66.2324 19.1318C65.9362 19.4736 65.583 19.7266 65.1729 19.8906C64.7627 20.0547 64.307 20.1367 63.8057 20.1367C63.4046 20.1367 63.0309 20.0866 62.6846 19.9863C62.3382 19.8815 62.026 19.7197 61.748 19.501C61.4746 19.2822 61.2376 19.0065 61.0371 18.6738C60.8411 18.3366 60.6908 17.9355 60.5859 17.4707C60.4811 17.0059 60.4287 16.4727 60.4287 15.8711V14.1484C60.4287 13.401 60.5085 12.7607 60.668 12.2275C60.832 11.6898 61.0622 11.25 61.3584 10.9082C61.6592 10.5664 62.0146 10.3158 62.4248 10.1562C62.835 9.99219 63.2907 9.91016 63.792 9.91016C64.193 9.91016 64.5645 9.96257 64.9062 10.0674C65.2526 10.1676 65.5648 10.3249 65.8428 10.5391C66.1208 10.7533 66.3577 11.029 66.5537 11.3662C66.7497 11.6989 66.9001 12.0977 67.0049 12.5625C67.1097 13.0228 67.1621 13.5514 67.1621 14.1484ZM65.1865 16.1309V13.8818C65.1865 13.5218 65.166 13.2074 65.125 12.9385C65.0885 12.6696 65.0316 12.4417 64.9541 12.2549C64.8766 12.0635 64.7809 11.9085 64.667 11.79C64.5531 11.6715 64.4232 11.585 64.2773 11.5303C64.1315 11.4756 63.9697 11.4482 63.792 11.4482C63.5687 11.4482 63.3704 11.4915 63.1973 11.5781C63.0286 11.6647 62.8851 11.8037 62.7666 11.9951C62.6481 12.182 62.557 12.4326 62.4932 12.7471C62.4339 13.057 62.4043 13.4352 62.4043 13.8818V16.1309C62.4043 16.4909 62.4225 16.8076 62.459 17.0811C62.5 17.3545 62.5592 17.5892 62.6367 17.7852C62.7188 17.9766 62.8145 18.1338 62.9238 18.2568C63.0378 18.3753 63.1676 18.4619 63.3135 18.5166C63.4639 18.5713 63.6279 18.5986 63.8057 18.5986C64.0244 18.5986 64.2181 18.5553 64.3867 18.4688C64.5599 18.3776 64.7057 18.2363 64.8242 18.0449C64.9473 17.849 65.0384 17.5938 65.0977 17.2793C65.1569 16.9648 65.1865 16.582 65.1865 16.1309Z" fill="white"/>
</svg>
